<?xml version="1.0" encoding="UTF-8" standalone="no"?>
<svg
   xmlns:dc="http://purl.org/dc/elements/1.1/"
   xmlns:cc="http://creativecommons.org/ns#"
   xmlns:rdf="http://www.w3.org/1999/02/22-rdf-syntax-ns#"
   xmlns:svg="http://www.w3.org/2000/svg"
   xmlns="http://www.w3.org/2000/svg"
   version="1.1"
   id="svg8342"
   viewBox="0 0 1978.3405 850.39369"
   height="240mm"
   width="558.33167mm">
  <defs
     id="defs8344" />
  <metadata
     id="metadata8347">
    <rdf:RDF>
      <cc:Work
         rdf:about="">
        <dc:format>image/svg+xml</dc:format>
        <dc:type
           rdf:resource="http://purl.org/dc/dcmitype/StillImage" />
        <dc:title></dc:title>
      </cc:Work>
    </rdf:RDF>
  </metadata>
  <g
     transform="translate(1252.7079,144.53991)"
     id="layer1">
    <path
       id="path8901"
       d="m 472.10025,700.86396 c -2.5804,-0.39237 -11.5804,-1.01578 -20,-1.38534 -8.4195,-0.36957 -18.9083,-1.31039 -23.3083,-2.09071 -19.7066,-3.4949 -24.2483,-4.35551 -28,-5.30572 -2.2,-0.55721 -10.463,-2.58381 -18.3623,-4.50356 -7.8992,-1.91975 -16.4492,-4.18712 -19,-5.0386 -2.5507,-0.85147 -8.4627,-2.75163 -13.1377,-4.22256 -20.4157,-6.42354 -39.5381,-13.98305 -56.6339,-22.38858 -10.1063,-4.96904 -20.2856,-10.3075 -22.6206,-11.86323 -2.335,-1.55574 -10.0955,-5.74937 -17.2455,-9.31917 -7.15,-3.5698 -14.8771,-7.56782 -17.1713,-8.88449 -8.65,-4.96431 -37.9689,-25.56631 -46.8118,-32.89393 -6.6233,-5.48842 -19.5846,-19.27257 -26.7987,-28.5 -12.23679,-19.83317 -26.37885,-40.37314 -31.7213,-63.01389 -0.6027,-2.68951 -2.8224,-9.41163 -4.9325,-14.93806 -2.1101,-5.52643 -4.4091,-12.29805 -5.1088,-15.04805 -1.877,-7.37671 -5.6731,-14.41821 -10.5125,-19.5 -2.357,-2.475 -7.0746,-7.51919 -10.4837,-11.2093 -4.759799,-5.1523 -7.344999,-7.0902 -11.139899,-8.35066 -14.441772,-1.08929 -22.524684,-5.8186 -36.0523,-8.83002 -3.4469,-0.75154 -10.5422,-2.51275 -15.7672,-3.9138 -5.225,-1.40104 -14.675,-3.51254 -21,-4.69221 -6.3250004,-1.17967 -15.1000004,-2.98247 -19.5000004,-4.00622 -4.4,-1.02375 -9.7999996,-2.16144 -11.9999996,-2.52819 -2.2,-0.36676 -8.2284,-1.79094 -13.3964,-3.16485 -5.168,-1.37392 -11.918,-2.89113 -15,-3.37159 -10.5444,-1.64379 -40.5986,-6.90795 -45.1036,-7.90016 -2.475,-0.5451 -7.65,-1.73043 -11.500001,-2.63405 -3.85,-0.90362 -9.7,-2.18375 -13,-2.84473 -3.3,-0.66098 -6.675,-1.45825 -7.5,-1.7717 -1.4858,-0.56451 -8.4448,-2.26143 -21,-5.12074 -3.575,-0.81417 -8.975,-1.78208 -12,-2.15092 -3.025,-0.36883 -7.75,-1.29902 -10.5,-2.06709 -2.75,-0.76806 -10.948,-2.53773 -18.2177,-3.93259 -7.2697,-1.39487 -14.3549,-2.96847 -15.7447,-3.49689 -1.6223,-0.61679 -5.1246,-0.60893 -9.7823,0.022 -3.9904,0.54049 -14.1166,1.85558 -22.5027,2.92241 -8.3861,1.06683 -17.8361,2.3946 -21,2.9506 -3.1639,0.556 -8.6776,1.45363 -12.2526,1.99473 -3.575,0.5411 -10.775,1.66632 -16,2.50049 -14.9738,2.39057 -26.72301,3.70929 -37,4.15284 -5.225,0.22551 -12.2,0.86438 -15.5,1.41971 -3.3,0.55533 -10.725,1.48012 -16.5,2.05509 -5.775,0.57497 -15.675,1.70293 -22,2.50658 -6.325,0.80365 -16.9,1.88719 -23.5,2.40787 -6.6,0.52067 -14.025,1.46221 -16.5,2.0923 -5.57632,1.41964 -15.10531,2.4874 -34.5,3.86586 -8.25,0.58635 -18.825,1.49785 -23.5,2.02555 -4.675,0.52769 -14.35,1.4424 -21.5,2.03268 -7.15,0.59028 -16.6,1.5542 -21,2.14205 -4.4,0.58785 -11.825,1.44705 -16.5,1.90934 -4.675,0.46229 -10.975,1.36381 -14,2.00339 -3.025,0.63957 -8.65,1.54274 -12.5,2.00704 -3.85,0.4643 -11.95,1.74856 -18,2.85391 -11.12285,2.03218 -21.78114,3.50203 -33.31773,4.59476 -3.47475,0.32913 -9.32475,0.9895 -13,1.4675 -3.67525,0.47801 -10.73227,1.38537 -15.68227,2.01637 -21.33635,2.71985 -32.3525,4.18844 -37.5,4.99924 -3.025,0.47647 -7.3,0.7242 -9.5,0.5505 -2.2,-0.1737 -6.25,0.0775 -9,0.55831 -6.06446,1.06023 -22.76353,2.77497 -39,4.00472 -6.6,0.49988 -19.425,1.56465 -28.5,2.36615 -9.075,0.80149 -22.575,1.72483 -30,2.05185 -7.425,0.32702 -18.45,1.01716 -24.5,1.53363 -6.05,0.51648 -21.35,1.63347 -34,2.48221 -12.65,0.84875 -25.025,1.75068 -27.5,2.00431 -2.475,0.25363 -9.45,0.91791 -15.5,1.47617 -6.05,0.55826 -15.05,1.45013 -20,1.98193 -4.95,0.5318 -15.075,1.22876 -22.5,1.5488 -12.38273,0.53374 -31.04555,1.68046 -50,3.0722 -4.125,0.30288 -9.075,0.82429 -11,1.15869 -5.15353,0.89523 -88.95845,1.05389 -106.99995,0.20257 -8.525,-0.40227 -26.75,-1.25257 -40.5,-1.88957 -13.75,-0.63699 -29.05,-1.61682 -34,-2.17739 -4.95,-0.56057 -13.05,-1.42329 -18,-1.91714 -11.2036,-1.11782 -24.2139,-3.78451 -41.7302,-8.55339 -8.0777,-2.19918 -18.7698,-10.71191 -18.7698,-14.94392 0,-4.07073 9.8603,-11.37976 21.5582,-15.98025 3.818,-1.50149 8.2918,-3.32401 9.9418,-4.05003 5.3784,-2.36661 18.8432,-7.26973 26,-9.46772 16.2834,-5.57327 32.5476,-10.01024 48,-14.73547 23.0149,-7.05178 64.4282,-18.18959 81,-21.78436 25.133,-5.45191 42.958,-9.00317 50,-9.96146 3.4428,-0.46852 37.74966,-6.46902 42.99995,-7.52099 2.75,-0.551 10.4,-2.14206 17,-3.53569 6.6,-1.39363 16.05,-3.38281 21,-4.4204 4.95,-1.03759 11.7,-2.15879 15,-2.49155 3.3,-0.33276 10.95,-1.4689 17,-2.52474 6.05,-1.05585 18.79798,-2.86119 28.32884,-4.01187 20.62019,-0.438 36.52153,-6.6165 50.07254,-8.53523 6.27076,-0.88041 15.27076,-2.48003 20,-3.55471 4.72924,-1.07467 11.07362,-2.44832 14.09862,-3.05256 3.025,-0.60424 13.6,-3.02925 23.5,-5.38893 9.9,-2.35967 19.575,-4.59448 21.5,-4.96625 4.70414,-0.90849 18.378,-3.86669 30,-6.4902 19.01377,-4.2921 19.45961,-4.36765 44,-7.45613 6.325,-0.79602 13.75,-1.73385 16.5,-2.08407 2.75,-0.35022 6.35,-1.00537 8,-1.45588 1.65,-0.45051 4.2375,-1.0931 5.75,-1.42798 1.5125,-0.33488 2.75,-1.04172 2.75,-1.57076 0,-0.52904 -1.2375,-1.23819 -2.75,-1.57588 -1.5125,-0.33769 -4.55,-1.21099 -6.75,-1.94066 -2.2,-0.72967 -8.725,-2.51716 -14.5,-3.97222 -5.775,-1.45505 -12.75,-3.2863 -15.5,-4.06945 -5.38601,-1.53383 -17.62934,-4.05067 -26.5,-5.44757 -6.29943,-0.99199 -24.80089,-5.60486 -30,-7.47974 -5.35221,-1.93009 -10.84723,-3.23606 -31.57911,-7.50522 -10.49351,-2.16085 -20.16851,-4.33558 -21.5,-4.83274 -1.33149,-0.49716 -4.67089,-1.22282 -7.42089,-1.61257 -94.33852,-20.79229 -173.01889,-44.8562 -266.99995,-64.6762 -2.75,-0.57098 -9.725,-2.5468 -15.5,-4.39072 -10.4948,-3.35091 -25.866,-7.73149 -40,-11.3995 -4.125,-1.0705 -12.675,-3.29389 -19,-4.94086 -6.325,-1.64697 -14.65,-4.10794 -18.5,-5.46882 -16.2431,-5.02146 -33.033,-11.04797 -48.5,-16.90667 -5.775,-2.18753 -13.875,-5.1017 -18,-6.47593 -4.125,-1.37423 -9.4126,-3.36635 -11.7501,-4.42693 -2.3375,-1.06057 -5.4874,-2.17814 -6.9999,-2.48347 -4.6098,-0.93059 -9.25,-5.82279 -9.25,-9.75237 0,-2.38171 4.9052,-7.55348 9.282,-9.78632 22.0113,-11.229383 92.5213,-15.755533 199.718,-12.820213 43.08103,1.17967 55.43154,1.77661 60.49995,2.92416 2.2,0.49811 10.75,1.39402 19,1.99091 8.25,0.5969 18.15,1.51793 22,2.04673 3.85,0.52881 11.725,1.21958 17.5,1.53504 141.92383,10.141123 275.02232,42.516293 412.36898,61.475403 6.85075,0.9292 9.45677,1.43807 30.63102,5.9812 5.225,1.12107 13.325,2.75094 18,3.62194 26.61351,4.95834 43.54063,8.32673 52.5,10.44716 2.2,0.52068 6.475,1.43717 9.5,2.03664 3.025,0.59948 7.525,1.49834 10,1.99748 2.475,0.49914 6.75,1.31813 9.5,1.81998 2.75,0.50184 7.7,1.57923 11,2.39419 3.3,0.81495 8.25,1.75809 11,2.09585 2.75,0.33777 7.25,1.06692 10,1.62033 2.75,0.55341 9.275,1.41665 14.5,1.91832 5.225,0.50167 13.325,1.83772 18,2.96902 4.675,1.13129 13,2.74909 18.5,3.59511 19.7666,3.04054 22.1118,3.39116 30,4.4853 4.4,0.6103 11.825,1.76161 16.5,2.55847 4.675,0.79686 12.9036,2.1367 18.2857,2.97742 5.3821,0.84071 13.2571,2.60984 17.5,3.93139 4.2429,1.32155 9.2893,2.6441 11.2143,2.939 1.925,0.2949 5.8301,0.98342 8.6779,1.53004 5.4019,1.03684 4.4298,1.16788 46.8221,-6.31131 7.7,-1.3585 17.15,-2.74572 21,-3.08273 3.85,-0.33701 10.15,-1.08134 14,-1.65408 8.0827,-1.2024 9.9966,-1.4667 17.500001,-2.41661 3.025,-0.38296 6.4,-0.91456 7.5,-1.18134 1.1,-0.26678 4.925,-0.90022 8.5,-1.40765 17.6974,-2.51194 39.8266,-6.11762 42.5,-6.92486 1.65,-0.49822 9.075,-2.02078 16.5,-3.38347 7.425,-1.36269 15.5249996,-2.96631 17.9999996,-3.5636 2.47500004,-0.59729 7.425,-1.47689 11,-1.95466 12.5112004,-1.67201 31.6385004,-4.95855 34.0584004,-5.85205 1.3429,-0.49584 10.5416,-2.34712 20.4416,-4.11396 9.9,-1.76685 19.4252,-3.64845 21.1672,-4.18134 1.7419,-0.5329 6.9169,-1.6045 11.5,-2.38135 12.188899,-2.06606 41.849499,-8.25659 45.332799,-9.46152 1.65,-0.57076 6.6,-1.9352 11,-3.0321 4.4,-1.0969 10.475,-2.71491 13.5,-3.59559 3.025,-0.88067 8.425,-2.41314 12,-3.40548 9.9925,-2.7737 23.8918,-8.76959 28.1534,-12.14482 4.0567,-3.21298 6.7085,-9.69598 6.9039,-16.8785 0.1792,-6.58659 2.0727,-23.495023 3.4716,-31.000003 1.3176,-7.06925 2.797,-12.79248 7.4315,-28.75 1.0782,-3.7125 2.6384,-9.22733 3.4672,-12.25518 0.8288,-3.02784 2.9221,-8.42659 4.6517,-11.9972 1.7296,-3.57062 4.0299,-8.74329 5.1117,-11.49483 1.0818,-2.75153 2.9417,-6.57779 4.1332,-8.50279 1.1914,-1.925 3.1829,-5.68639 4.4254,-8.3586497 1.2425,-2.67226 5.0889,-8.29726 8.5475,-12.5 3.4587,-4.2027403 7.1326,-8.9913503 8.1643,-10.6413503 3.3797,-5.405303 19.9177,-23.699493 25.5386,-28.250593 3.025,-2.44926 7.525,-6.35333 10,-8.6757 2.475,-2.32237 7.2999,-6.34914 10.7221,-8.94838 3.4221,-2.59924 6.472,-5.13045 6.7776,-5.6249 0.3056,-0.49446 5.8307,-4.14812 12.278,-8.11925 6.4473,-3.97113 14.1973,-8.83145 17.2223,-10.80071 8.1827,-5.32691 9.0197,-5.80801 15,-8.62164 3.025,-1.42321 7.975,-3.859284 11,-5.413474 3.025,-1.55419 10.45,-4.93613 16.5,-7.51542 6.05,-2.5793 12.35,-5.29534 14,-6.03567 5.0363,-2.25968 23.1405,-8.49427 24.666,-8.49427 0.7887,0 1.8615,-0.35814 2.384,-0.79586 1.6271,-1.36307 7.3709,-2.90289 24.45,-6.55458 17.848,-3.81609 33.7291,-5.64673 49.5,-5.70595 11.1764,-0.042 39.5645,2.36018 41.4161,3.50455 0.6583,0.40682 3.5339,1.13014 6.3904,1.60738 20.98179,4.98721 44.90865,9.20161 61.6907,22.35462 0.8265,0.69999 4.2028,2.89693 7.5028,4.88209 6.9081,4.15565 27.33751,23.769444 35.98781,34.551014 5.9184,7.37653 8.6684,12.01524 16.9889,28.65674 4.7407,9.48189 5.4669,12.37438 8.0331,32.000003 0.3596,2.7500003 1.2896,8.2319403 2.0667,12.1820803 0.7771,3.95014 1.2255,7.7751397 0.9966,8.4999997 -0.229,0.72486 -0.6741,5.14292 -0.9892,9.81792 -0.7168,10.634 -2.3394,20.67467 -3.7746,23.35628 -0.6038,1.12831 -1.6876,4.09722 -2.4085,6.59759 -4.541,15.75193 -10.9635,28.09298 -20.2191,38.8514 -1.2751,1.4821 -4.4053,5.39473 -6.9561,8.694733 -5.5294,7.15341 -9.0285,10.72101 -15.72561,16.03365 -2.75,2.18149 -5.45,4.46822 -6,5.08161 -0.9402,1.04855 -5.9432,4.76834 -20.6923,15.38474 -6.2707,4.51374 -15.2688,9.72711 -21.8077,12.63515 -1.925,0.8561 -4.4192,2.40424 -5.5427,3.4403 -1.1235,1.03606 -5.8485,3.87229 -10.5,6.30272 -4.6515,2.43044 -10.4823,5.56355 -12.9573,6.96247 -2.475,1.39893 -11.7,5.05243 -20.5,8.1189 -8.8,3.06647 -16.675,5.8605 -17.5,6.20896 -0.825,0.34847 -2.1417,0.76242 -2.9261,0.91989 -0.7843,0.15748 -2.8093,0.9511 -4.5,1.7636 -1.6906,0.8125 -6.4489,2.57591 -10.5739,3.9187 -8.2958,2.7005 -20.0789,7.86889 -27,11.84295 -7.1435,4.10178 -18.4528,11.11735 -19,11.7864 -0.275,0.33623 -2.2889,1.94651 -4.4753,3.5784 -3.7301,2.78403 -8.0793,7.00713 -14.9551,14.52164 -7.7716,8.49345 -14.4789,9.88467 -29.1407,6.04437 -8.4619,-2.21638 -9.9894,-3.03 -18.9289,-10.08268 -10.2221,-8.06455 -21.0535,-13.68555 -32,-16.60652 -1.1,-0.29353 -3.35,-1.13578 -5,-1.87168 -5.6462,-2.51821 -18.482,-4.71328 -31.7416,-5.42816 -20.2941,-1.09413 -62.3754,-0.0282 -65.0887,1.64873 -0.5084,0.31422 -4.3546,0.50298 -8.5471,0.41948 -4.6355,-0.0923 -12.9129,0.85535 -21.1226,2.41829 -7.425,1.41357 -15.975,2.91301 -19,3.33211 -3.025,0.41909 -7.2425,1.51888 -9.3721,2.44398 -2.1297,0.92509 -5.2797,1.67547 -7,1.6675 -1.7204,-0.008 -6.0529,0.87146 -9.6279,1.95429 -3.575,1.08282 -9.425,2.68695 -13,3.56473 -13.9161,3.41687 -16.5682,4.17802 -18.5,5.30941 -2.9675,1.738 -10.3896,4.23649 -15.5,5.21775 -2.475,0.47523 -6.9424,1.81603 -9.9275,2.97954 -2.9851,1.16352 -7.2601,2.4938 -9.5,2.95619 -4.8748,1.00631 -18.490099,5.56821 -24.072499,8.06565 -3.7456,1.67567 -12.1805,5.62012 -27.5,12.85984 -6.6236,3.1302 -16.0252,8.21682 -21.5923,11.68219 -7.7706,4.83704 -27.4068,20.06059 -27.4072,21.24827 -3e-4,0.72785 5.5735,6.94611 12.3862,13.81835 10.9732,11.06916 13.9116,13.39949 25.75,20.42138 16.163,9.58701 31.3644,17.09605 45.3633,22.40811 14.413099,5.46924 17.286599,6.49251 28.999999,10.32697 19.8507,6.49829 24.5754,7.89076 34.5,10.16802 5.225,1.1989 10.5337,2.59697 11.7971,3.10681 1.2633,0.50984 3.2564,0.92699 4.429,0.92699 1.1725,0 3.5139,0.43529 5.2029,0.96731 7.665,2.41434 21.1223,5.09988 32.7852,6.5426 6.9929,0.86502 16.145,2.22917 20.338,3.03143 4.1931,0.80226 11.3826,1.45866 15.9768,1.45866 4.5941,0 8.5887,0.3815 8.8769,0.84777 0.2882,0.46627 4.4772,1.13521 9.309,1.48652 4.8318,0.35132 21.6101,2.20841 37.2851,4.12688 15.675,1.91847 30.975,3.75661 34,4.08476 3.025,0.32815 12.025,1.73686 20,3.13046 7.975,1.39361 16.975,2.88326 20,3.31033 3.025,0.42708 12.25,2.22669 20.5,3.99913 59.93093,6.35215 108.13463,23.39097 164.7552,42.54927 2.3347,0.39002 6.4948,1.59665 9.2448,2.68138 2.75,1.08474 10.85,3.45904 18,5.27623 7.15,1.81719 21.1,6.09056 31,9.49638 42.07791,14.47574 42.03631,14.45898 52.50001,21.13116 3.575,2.27959 8.6944,5.45695 11.3764,7.0608 5.9314,3.54697 22.9217,18.56466 28.1806,24.9088 2.4305,2.93193 6.443,10.96398 6.443,12.89711 0,0.74555 0.7595,2.19479 1.6878,3.22055 2.4154,2.66892 3.6746,12.25063 3.6526,27.79247 -0.021,14.53996 -0.9646,20.99273 -3.674,25.11432 -0.9453,1.43788 -2.6357,5.92377 -3.7566,9.96865 -2.0148,7.27047 -3.2674,9.6939 -11.7538,22.73933 -2.3892,3.67274 -5.175,8.2527 -6.1906,10.1777 -2.4241,4.59496 -19.125,20.36089 -31.0564,29.31781 -10.2517,7.69599 -12.6733,9.28367 -18.3912,12.05781 -3.3098,1.60584 -8.4454,4.4643 -11.4124,6.35214 -14.04421,8.93589 -43.09651,20.33252 -55.60541,21.81287 -3.3,0.39054 -6.7716,1.111 -7.7147,1.60103 -0.9431,0.49003 -3.4181,1.07885 -5.5,1.30851 -2.0819,0.22965 -12.7853,1.58567 -23.7853,3.01338 -17.5652,2.27983 -23.0434,2.56845 -45,2.3708 -13.75,-0.12378 -27.1112,-0.54608 -29.6917,-0.93846 z m 67.7141,-18.41629 c 17.3515,-1.92379 30.1843,-4.0744 38.4776,-6.44836 3.575,-1.02334 10.775,-3.06318 16,-4.53298 5.6818,-1.59831 16.8614,-6.25459 27.8159,-11.58531 10.0738,-4.90212 18.62991,-8.91295 19.01361,-8.91295 1.4149,0 20.9582,-13.15051 30.0397,-20.21336 11.1519,-8.67314 14.3534,-11.65355 19.6433,-18.28664 2.1931,-2.75 4.325,-5.15 4.7375,-5.33333 0.4125,-0.18334 0.75,-0.90896 0.75,-1.6125 0,-0.70354 1.35,-2.97791 3,-5.05417 1.65,-2.07626 3,-4.20617 3,-4.73313 0,-0.52697 0.8356,-2.1526 1.8569,-3.6125 1.0213,-1.4599 3.0962,-5.78081 4.6108,-9.602 3.678,-9.27871 4.3875,-25.41006 1.5857,-36.05237 -2.0198,-7.67213 -6.5956,-16.78143 -11.5534,-23 -1.754,-2.2 -3.7249,-5.0125 -4.3797,-6.25 -0.6549,-1.2375 -1.609,-2.25 -2.1202,-2.25 -0.9268,0 -3.5008,-2.08832 -8.8655,-7.19272 -1.5565,-1.481 -3.911,-2.97311 -5.2323,-3.31581 -1.3213,-0.34269 -4.8773,-2.16816 -7.9023,-4.0566 -18.3202,-10.13077 -40.45374,-19.77823 -60.29171,-24.36552 -8.5584,-1.73813 -22.3698,-5.35278 -27.7083,-7.25169 -6.8105,-2.42249 -13.0933,-4.33833 -23.7543,-7.24357 -4.5399,-1.23716 -8.5524,-2.54744 -8.9167,-2.91173 -0.3643,-0.3643 -1.436,-0.66236 -2.3817,-0.66236 -0.9456,0 -6.4109,-1.52063 -12.145,-3.37918 -47.74741,-15.51466 -97.21459,-25.05543 -126.4295,-29.98928 -2.1332,-0.75265 -6.9411,-1.62626 -10.6842,-1.94137 -3.743,-0.3151 -9.3667,-1.09074 -12.4971,-1.72364 -11.9139,-2.4088 -32.9904,-7.12072 -40.1915,-8.98533 -7.1487,-1.85105 -18.8396,-3.93394 -42,-7.4829 -5.775,-0.88493 -14.1,-2.23502 -18.5,-3.00021 -4.4,-0.76519 -14.075,-1.88864 -21.5,-2.49656 -20.8263,-1.70514 -32.9366,-2.9369 -39.5,-4.01762 -7.3536,-1.21083 -15.577,-2.37893 -34.737,-4.93421 -8.1054,-1.08098 -15.5495,-2.40023 -16.5425,-2.93167 -1.7513,-0.93729 -26.1548,-7.59279 -33.2205,-9.06014 -1.925,-0.39977 -5.3,-1.63934 -7.5,-2.75459 -2.2,-1.11525 -7.15,-3.02218 -11,-4.23761 -3.85,-1.21544 -7.9,-2.58988 -9,-3.05432 -1.1,-0.46444 -2.9,-1.07545 -4,-1.3578 -1.1,-0.28235 -7.849999,-2.82315 -14.999999,-5.64622 -7.15,-2.82307 -16.15,-6.28716 -20,-7.69798 -10.8476,-3.97508 -26.8614,-12.26499 -33.5,-17.34206 -5.1763,-3.95875 -5.9048,-3.98126 -13.0699,-0.40382 -3.6135,1.80415 -11.2635,5.37691 -17.0000004,7.93946 -5.7366,2.56254 -11.7801,5.32954 -13.4301,6.14888 -1.65,0.81934 -6.3749996,2.61396 -10.4999996,3.98804 -12.868,4.28647 -50.3845,23.69099 -49.7212,25.7171 0.5827,1.77961 7.1094,3.58537 20.7212,5.73293 15.5668,2.45601 30.6521,5.27317 66,12.32539 16.4174,3.27542 35.3079,7.75136 44.75,10.60312 3.722,1.12415 7.3904,2.16182 15.3979,4.35565 4.7734,1.30776 18.697599,7.48588 23.852099,10.58311 0.825,0.49572 3.75,1.92236 6.5,3.17031 6.7498,3.06307 14.5786,10.66292 20.9648,20.35182 5.5844,8.47245 7.8983,12.5207 7.1566,12.5207 -0.2469,0 0.3543,2.1375 1.3361,4.75 4.3712,11.63134 5.9769,16.16784 7.8752,22.25 6.9504,25.51919 20.79848,46.20348 30.6673,63.04451 1.65,2.89051 4.6054,7.10048 6.5675,9.35548 1.9622,2.25501 5.7653,7.02501 8.4514,10.60001 2.6861,3.575 5.4121,6.82848 6.0578,7.22995 2.4127,1.50006 11.0772,9.43615 15.4233,14.12666 2.475,2.67114 7.2681,7.06201 10.6512,9.75751 5.569,4.437 10.1376,7.16087 29.694,17.70405 3.3851,1.82499 8.6298,4.76443 11.6548,6.53208 11.0739,6.47099 54.8008,26.64975 57.7494,26.64975 0.5496,0 7.0183,2.41255 14.3749,5.36123 7.3567,2.94868 16.9757,6.1313 21.3757,7.07249 4.4,0.9412 10.437,2.40012 13.4156,3.24206 11.5143,3.25473 24.8794,6.1106 31.5844,6.74902 3.85,0.36658 9.475,1.29438 12.5,2.06179 4.9744,1.26194 12.9938,2.61469 33.4867,5.64864 20.5339,3.04003 64.5398,3.72765 86.0357,1.34437 z m -61.5224,-8.60253 c -38.69111,-4.76836 -49.0578,-6.58385 -68,-11.64138 -7.7192,-2.07263 -12.2541,-2.98896 -18.7575,-3.79026 -2.0584,-0.25361 -7.7925,-1.8034 -12.7425,-3.44399 -4.95,-1.64058 -15.3,-4.61111 -23,-6.60119 -7.7,-1.99007 -14.45,-3.96057 -15,-4.37889 -0.55,-0.41832 -2.7405,-1.07458 -4.8677,-1.45836 -4.2845,-0.77299 -9.7781,-3.1014 -26.1323,-11.07596 -6.05,-2.95008 -15.8104,-7.59949 -21.6899,-10.33203 -11.7273,-5.45043 -17.5168,-9.0343 -31.8101,-19.69146 -5.225,-3.89578 -11.3,-8.16311 -13.5,-9.48296 -2.2,-1.31985 -6.025,-4.2817 -8.5,-6.58189 -2.475,-2.30019 -8.6191,-7.81976 -13.6535,-12.26571 -5.0344,-4.44594 -10.2094,-9.49288 -11.5,-11.21541 -1.2906,-1.72252 -3.8707,-4.76538 -5.7337,-6.7619 -1.8629,-1.99653 -4.4107,-5.25145 -5.6617,-7.23317 -1.251,-1.98171 -2.8768,-4.24963 -3.6128,-5.0398 -6.14213,-9.88934 -14.63596,-23.24633 -18.4943,-33.38497 -11.6047,-31.5928 -11.781,-54.26888 -0.5783,-74.38105 7.6156,-13.67239 19.8992,-22.88446 38.2405,-28.67847 9.7363,-3.0757 10.8475,-3.1498 23.9938,-1.60011 20.568,2.42457 27.5853,3.42447 34,4.84474 3.575,0.79152 15.275,3.01606 26,4.94342 10.725,1.92735 21.075,3.91535 23,4.41777 6.663,1.73903 36.5252,9.14877 42.5,10.54558 12.0578,2.8189 51.8162,10.64934 60.5,11.9155 4.5758,0.66719 13.8704,3.08544 17.5,4.55311 1.1,0.44481 6.725,2.02052 12.5,3.5016 11.9817,3.07286 24.7606,6.47526 33.5,8.91937 54.60947,16.69471 115.94052,32.24073 160.17901,60.92188 9.8859,6.71405 22.0443,22.26046 20.5997,26.33999 -0.2417,0.68259 0.2672,1.94768 1.1308,2.81132 2.7997,2.79971 5.0656,12.4194 4.9518,21.02301 -0.1283,9.69857 -2.3056,18.9832 -7.1347,30.4246 -4.8257,11.43313 -7.7549,15.51891 -17.5581,24.49087 -11.8104,10.80906 -27.69411,20.39444 -47.65141,28.75647 -19.4583,8.15295 -22.2514,9.10002 -36.0171,12.21252 -3.575,0.80832 -9.65,2.19577 -13.5,3.08322 -3.85,0.88744 -11.6461,1.77612 -17.3248,1.97484 -5.6786,0.19872 -10.8536,0.78897 -11.5,1.31167 -0.6463,0.52269 -7.666,1.21976 -15.5993,1.54903 -7.9332,0.32927 -16.4832,0.79364 -19,1.03194 -2.5167,0.2383 -7.0509,-0.002 -10.0759,-0.53349 z m 82,-31.3122 c 5.775,-1.31899 13.1001,-2.92076 16.2779,-3.55948 6.0717,-1.22036 14.6084,-4.83212 31.2221,-13.20961 13.6787,-6.8975 16.0442,-8.3582 25.2158,-15.57043 9.82131,-7.72316 15.50921,-16.08112 19.73611,-29.00117 1.4883,-4.54917 1.5831,-6.59083 0.6885,-14.82333 -0.8593,-7.90793 -1.6467,-10.65577 -4.5848,-16.00112 -1.9511,-3.54948 -5.2021,-7.90399 -7.2246,-9.67667 -2.0224,-1.77268 -4.2307,-3.77419 -4.90741,-4.44778 -3.1679,-3.15377 -33.3816,-19.14756 -43.0347,-22.78067 -3.7889,-1.42601 -7.7889,-3.18046 -8.8889,-3.89877 -44.96146,-18.95518 -97.51933,-27.55608 -146.1833,-43.14441 -3.9508,-1.27849 -10.0258,-2.84995 -13.5,-3.49213 -3.4742,-0.64218 -8.5667,-1.94616 -11.3167,-2.89772 -24.4465,-5.19382 -47.64761,-14.01964 -72.5782,-18.01976 -3.532,-0.5493 -8.2218,-1.44101 -10.4218,-1.98159 -2.2,-0.54057 -8.05,-1.66713 -13,-2.50346 -4.95,-0.83633 -12.15,-2.44191 -16,-3.56796 -17.1723,-5.02256 -48.181,-8.91674 -73.9503,-9.28696 -14.0165,-0.20137 -14.0612,-0.19477 -18.9207,2.79815 -6.9744,4.29547 -12.6006,10.14908 -14.8287,15.42817 -1.0612,2.51451 -2.312,5.47183 -2.7796,6.57183 -3.6905,8.68338 -3.4798,28.17342 0.4595,42.5 1.4366,5.225 3.042,11.1803 3.5674,13.234 1.7669,6.90654 11.65,25.58197 17.9709,33.95858 3.4478,4.56908 9.6916,11.69392 13.8751,15.83298 24.03066,24.12937 50.24009,39.49444 73.1064,49.49011 5.775,2.52298 11.4,5.17057 12.5,5.88355 2.4104,1.56233 16.7945,7.70456 32.5,13.87798 9.7811,3.84468 16.6879,6.1233 41.5,13.69123 5.0361,1.53606 27.748,6.90324 32,7.56212 47.57119,11.61884 100.20877,6.40826 141.5,-2.96568 z m 106.00001,6.87611 c 0,-0.85746 -0.45,-1.2809 -1,-0.94098 -0.55,0.33992 -1,1.04148 -1,1.55902 0,0.51754 0.45,0.94098 1,0.94098 0.55,0 1,-0.70156 1,-1.55902 z M -1052.208,442.89637 c 7.15,-0.42765 16.6,-1.03515 21,-1.35 4.4,-0.31485 14.075,-0.81802 21.5,-1.11815 7.425,-0.30013 15.91456,-0.97079 18.86574,-1.49037 2.95119,-0.51958 5.65969,-0.76305 6.01889,-0.54105 0.35921,0.222 6.7196,-0.21612 14.13421,-0.97361 7.41461,-0.75749 17.30611,-1.55808 21.98111,-1.77909 18.57743,-0.87826 56.75675,-3.82939 61,-4.71509 2.475,-0.51661 9.45,-1.20882 15.5,-1.53825 6.05,-0.32942 12.39768,-1.02279 14.10596,-1.54083 2.02274,-0.6134 4.05929,-0.57943 5.83949,0.0974 2.02018,0.76807 3.81926,0.67599 6.89404,-0.35284 2.28828,-0.76567 9.56051,-1.70833 16.16051,-2.0948 6.6,-0.38647 18.75,-1.34342 27,-2.12655 17.08478,-1.62178 36.06957,-3.11117 48.5,-3.80493 13.95221,-0.77869 22.98631,-1.64289 32.5,-3.10896 7.7655,-1.19666 13.39075,-1.85926 33.5,-3.94597 1.925,-0.19976 6.875,-0.82328 11,-1.38561 9.1549,-1.24803 41.25617,-4.93997 49.5,-5.69296 3.3,-0.30142 10.05,-1.18206 15,-1.95698 19.88983,-3.11371 29.30358,-4.45324 35.5,-5.05145 3.575,-0.34514 7.85,-1.02592 9.5,-1.51285 1.65,-0.48693 8.175,-1.37596 14.5,-1.97561 6.325,-0.59966 18.025,-2.15052 26,-3.44637 7.975,-1.29584 17.425,-2.64424 21,-2.99644 3.575,-0.35221 7.625,-0.79922 9,-0.99336 8.25739,-1.16591 14.06506,-1.79883 37.5,-4.08672 14.3,-1.39608 26.675,-2.77456 27.5,-3.06329 3.76149,-1.31645 28.85265,-5.49786 34.83588,-5.80536 3.66526,-0.18837 9.74797,-0.85027 13.51713,-1.47087 3.76915,-0.62061 16.46144,-2.2521 28.20507,-3.62553 11.74364,-1.37343 22.58799,-2.96705 24.09857,-3.54137 1.51058,-0.57432 9.06829,-1.47791 16.79493,-2.00798 7.72663,-0.53007 17.42342,-1.4593 21.54842,-2.06496 4.125,-0.60565 11.775,-1.67245 17,-2.37066 5.225,-0.6982 12.425,-1.74707 16,-2.33081 3.575,-0.58373 12.8,-1.59014 20.5,-2.23645 9.5014,-0.79751 15.1357,-1.74951 17.5345,-2.96271 2.3817,-1.20461 4.0629,-1.49188 5.1548,-0.88082 2.2729,1.27201 48.9893,-3.65122 58.3107,-6.14511 11.4461,-3.06235 43.4055,-8.54227 55.0841,-9.445 16.280901,-1.25847 28.905701,-4.09939 37.359701,-8.40691 7.22,-3.67881 10.2303,-6.24688 27.3835,-23.3611 17.1227,-17.08381 33.4811996,-31.30302 56.059,-48.72793 8.3043,-6.40906 19.5595,-14 20.758,-14 0.4575,0 7.5225,-3.57725 15.7001,-7.94944 13.8645,-7.41277 19.1875,-9.74675 42.6556,-18.70307 4.949999,-1.88911 9.899999,-3.81185 10.999999,-4.27277 5.0648,-2.1222 16.2923,-6.04426 19,-6.63718 1.65,-0.36132 5.025,-1.33736 7.5,-2.16899 12.1143,-4.07056 42.2417,-11.68509 50,-12.63721 2.475,-0.30374 10.575,-1.46069 18,-2.57099 7.425,-1.1103 14.9359,-2.0281 16.691,-2.03954 1.755,-0.0114 3.4545,-0.44728 3.7767,-0.96852 0.3221,-0.52125 3.1612,-0.95766 6.309,-0.9698 3.1478,-0.0122 6.8483,-0.22656 8.2233,-0.47647 2.8507,-0.51811 23.5651,-2.98715 38.7037,-4.61325 10.6024,-1.13886 50.4553,-1.63059 52.0544,-0.6423 0.502,0.31027 4.4743,1.27748 8.8273,2.14937 17.4229,3.48973 30.7354,8.81209 47.9146,19.15634 9.6307,5.79901 10.3901,6.27575 15,9.41671 2.4019,1.6365 3.9969,1.93387 8,1.49144 6.802,-0.75178 9.0242,-1.23932 11.3694,-2.49441 1.0995,-0.58846 2.8591,-1.06992 3.9101,-1.06992 1.0511,0 7.5752,-4.24369 14.4979,-9.43042 15.8712,-11.89111 41.1463,-26.56957 45.7506,-26.56957 1.3239,0 4.3235,-1.1093 29.5253,-10.91904 7.1794,-2.79453 13.823,-5.08096 14.7636,-5.08096 0.9406,0 2.4916,-0.44037 3.4467,-0.9786 0.955,-0.53823 5.5614,-2.38454 10.2364,-4.10292 4.675,-1.71838 10.3296,-3.97801 12.5657,-5.0214 2.2362,-1.0434 4.5364,-1.89708 5.1115,-1.89708 1.4039,0 14.0893,-7.01296 19.4898,-10.77461 2.3831,-1.65998 6.808,-4.61883 9.833,-6.57523 20.4223,-13.20799 29.5283,-20.35297 40.5,-31.778163 7.139,-7.43413 10.90451,-12.57697 18.21061,-24.872 5.4473,-9.16688 10.0036,-18.15582 11.1513,-22 4.5075,-15.09709 6.7742,-36.23919 5.0973,-47.5426297 -2.4154,-16.2808003 -7.8853,-34.5955533 -12.3817,-41.4573733 -1.2614,-1.925 -3.7615,-5.95726 -5.5558,-8.96058 -7.0176,-11.7461 -22.95791,-28.18533 -34.47211,-35.55082 -2.9966,-1.91692 -5.8087,-4.09557 -6.249,-4.84144 -2.1172,-3.58629 -31.6336,-17.939284 -40.7275,-19.804684 -2.7902,-0.57234 -6.2823,-1.67977 -7.7603,-2.46096 -1.4779,-0.78119 -7.5529,-1.87661 -13.5,-2.43427 -5.947,-0.55766 -12.3878,-1.47067 -14.3128,-2.02891 -1.925,-0.55825 -9.575,-1.26713 -17,-1.5753 -16.3861,-0.6801 -26.5522,0.60938 -52.5,6.65915 -4.95,1.1541 -10.575,2.50374 -12.5,2.9992 -1.925,0.49546 -5.5753,1.34761 -8.1117,1.89367 -2.5364,0.54607 -6.4143,1.93242 -8.6175,3.08079 -2.2032,1.14837 -4.8529,2.26314 -5.8883,2.47727 -3.1053,0.64221 -15.5659,5.544164 -20.3825,8.018384 -5.9214,3.04173 -10.9936,5.26279 -16.229,7.10643 -5.8887,2.07372 -11.0869,4.35508 -18.6206,8.17207 -3.528,1.7875 -7.0301,3.25 -7.7825,3.25 -0.7523,0 -1.3679,0.39458 -1.3679,0.87685 0,0.48228 -2.3625,1.88018 -5.25,3.10646 -2.8875,1.22627 -6.15,3.03818 -7.25,4.02645 -1.1,0.98827 -5.6911,4.25491 -10.2023,7.25919 -4.5113,3.00429 -11.6608,8.56031 -15.8878,12.3467 -4.2269,3.78639 -10.4358,9.29378 -13.7976,12.23863 -3.3618,2.94486 -7.6364,6.76986 -9.4993,8.5 -8.077,7.501713 -22.1856,27.3055833 -29.3129,41.145723 -4.5343,8.80492 -9.5605,19.88695 -10.786,23.78126 -0.6544,2.0797 -2.2448,5.6797 -3.5342,8 -1.2894,2.32031 -3.3144,6.91874 -4.5001,10.21874 -1.1856,3.3 -2.731,7.35 -3.4343,9 -4.3142,10.12231 -8.2458,27.34178 -9.0186,39.500003 -0.3321,5.225 -0.7995,10.175 -1.0386,11 -0.239,0.825 -0.6406,3.075 -0.8923,5 -1.5158,11.59432 -2.7285,18.37904 -3.5639,19.93997 -1.4911,2.78615 -11.111,11.00595 -15.5321,13.27146 -2.2,1.12736 -5.2219,2.91052 -6.7154,3.96259 -1.4934,1.05207 -5.7684,2.54614 -9.5,3.32017 -7.7997,1.61787 -23.4864,5.81599 -30.0176,8.03341 -2.4524,0.83259 -10.5472,3.08784 -17.9885,5.01168 -7.4413,1.92383 -13.8859,3.71807 -14.3213,3.98718 -0.4355,0.26911 -4.3165,1.14942 -8.6245,1.95624 -4.308,0.80681 -10.9827,2.14721 -14.8327,2.97866 -3.85,0.83145 -11.95,2.39767 -17.999999,3.48048 -6.05,1.0828 -13.925,2.6092 -17.5,3.39198 -3.575,0.78279 -9.425,1.71447 -13,2.0704 -3.575,0.35593 -9.425,1.28228 -13,2.05854 -3.575,0.77627 -10.325,2.12282 -15,2.99234 -4.675,0.86952 -12.775,2.50753 -18,3.64003 -19.03920036,4.12668 -22.5822004,4.84033 -27.0000004,5.43855 -8.1219996,1.09979 -35.2023996,6.50507 -36.8692996,7.35917 -0.8969,0.45953 -6.3557,1.10482 -12.1307,1.43397 -5.775,0.32916 -12.075,1.12089 -14,1.75941 -1.925,0.63852 -5.975,1.49976 -9,1.91386 -3.025,0.4141 -14.5,2.41993 -25.500001,4.45741 -11,2.03747 -22.9696,4.13204 -26.5992,4.6546 -3.6296,0.52255 -8.8046,1.75088 -11.5,2.72961 -2.6954,0.97874 -7.1508,1.88425 -9.9008,2.01225 -2.75,0.128 -6.35,0.63129 -8,1.11844 -1.65,0.48714 -8.625,1.84456 -15.5,3.0165 -6.875,1.17194 -14.075,2.52488 -16,3.00654 -5.8975,1.47562 -34.6486,3.31589 -39.7204,2.54238 -2.6288,-0.40093 -16.0296,-0.93679 -29.7796,-1.19082 -13.75,-0.25403 -26.575,-0.53617 -28.5,-0.62697 -5.30585,-0.25028 -18.28315,1.16939 -30,3.28189 -5.775,1.04121 -14.775,2.61939 -20,3.50708 -14.31167,2.43142 -31.2769,5.55668 -33.26409,6.12775 -1.68545,0.48436 -1.68545,0.64863 0,3.6851 0.97025,1.74798 2.14002,3.45345 2.5995,3.78994 0.45948,0.3365 0.74934,0.7865 0.64414,1 -0.1052,0.21351 0.29009,2.1882 0.87842,4.3882 0.58833,2.2 1.3184,6.00449 1.62237,8.45443 0.30397,2.44994 1.04413,6.27494 1.64481,8.5 0.98946,3.66523 1.81415,8.43157 3.46836,20.04557 0.78296,5.49708 3.05413,14.69324 5.61167,22.7221 1.72871,5.42691 1.92282,7.20157 1.00743,9.21061 -1.46393,3.21298 -8.69367,5.332 -20.21261,5.92426 -8.79906,0.45242 -24.46483,3.00771 -43.5,7.09541 -12.77619,2.74361 -20.52466,3.90318 -40.5,6.06087 -7.975,0.86144 -15.16239,1.79757 -15.97198,2.0803 -0.80958,0.28272 -8.90958,1.39181 -18,2.46465 -19.42039,2.29195 -26.51004,3.30066 -38.02802,5.41056 -4.675,0.85639 -13.225,2.22309 -19,3.03712 -17.2344,2.42933 -40.04026,5.90061 -49.5,7.53441 -3.3,0.56994 -8.025,1.22636 -10.5,1.45871 -2.475,0.23235 -9.675,1.14281 -16,2.02325 -6.325,0.88044 -15.1,2.0243 -19.5,2.54189 -4.4,0.5176 -11.375,1.59531 -15.5,2.39491 -4.125,0.7996 -12.675,2.1906 -19,3.09112 -22.78388,3.24384 -36.56358,5.54843 -40,6.68981 -1.925,0.63937 -5.75,1.23534 -8.5,1.32438 -2.75,0.089 -8.825,0.94343 -13.5,1.89865 -11.9416,2.43997 -18.41086,3.52025 -26.60808,4.44321 -3.90945,0.44018 -7.60792,1.10924 -8.21884,1.48681 -0.61091,0.37756 -2.58727,0.85173 -4.39191,1.0537 -7.03703,0.78757 -20.56654,2.6354 -26.28117,3.58944 -3.3,0.55092 -10.05,1.41542 -15,1.9211 -4.95,0.50569 -15.975,1.90447 -24.5,3.1084 -8.525,1.20394 -17.3,2.31999 -19.5,2.48012 -5.05772,0.36814 -19.86976,2.83148 -29,4.82289 -3.85,0.83973 -11.95,2.0096 -18,2.59972 -6.05,0.59011 -13.475,1.36333 -16.5,1.71825 -3.025,0.35492 -6.4,0.73301 -7.5,0.84021 -1.1,0.10719 -3.575,0.4568 -5.5,0.77691 -9.87832,1.64267 -19.21802,2.68487 -25.5,2.84549 -3.85,0.0984 -8.575,0.51681 -10.5,0.92971 -4.90189,1.05144 -13.41363,1.84008 -36.49995,3.38184 -11,0.73461 -24.0686,1.8252 -29.0412,2.42354 -25.4339,3.06032 -144.0005,4.29906 -165.4588,1.72865 -6.325,-0.75764 -11.6875,-1.20551 -11.9167,-0.99527 -2.9724,2.72697 31.4262,7.64495 61.9167,8.85227 27.0994,1.07305 40.5082,1.76026 40.8699,2.0946 0.7019,0.64881 55.6636,0.13923 68.6301,-0.6363 z m 746.20062,-104.87139 c -8.12287,-1.12488 -19.04482,-6.96712 -25.2252,-13.49316 -10.24293,-10.8158 -13.39641,-17.31417 -14.23418,-29.33233 -1.23087,-17.65723 6.52926,-34.34838 20.20706,-43.46311 15.06902,-10.04182 37.15695,-10.5221 53.28845,-1.1587 5.5459,3.21909 13.2508,10.98723 16.6488,16.78533 9.1411,15.59822 9.1855,34.37291 0.1135,48.04045 -7.544,11.36545 -15.6711,18.19814 -25.0134,21.02931 -6.275,1.90164 -18.22306,2.63942 -25.78503,1.59221 z m 26.76703,-14.48514 c 7.7739,-4.5558 13,-10.00728 16.1288,-16.82429 2.5153,-5.48023 2.8567,-7.35277 2.7806,-15.24748 -0.097,-10.09361 -1.3384,-13.95479 -6.9369,-21.58147 -8.1245,-11.06772 -22.0055,-16.30436 -36.90818,-13.92365 -12.18368,1.94636 -20.36199,7.95668 -26.10039,19.18146 -2.8303,5.5363 -4.11909,18.5569 -2.45023,24.75457 1.71238,6.35932 8.89535,16.10656 14.9874,20.3378 7.80282,5.41947 12.77632,6.75064 24.062,6.44029 8.4322,-0.23187 10.0964,-0.59351 14.4369,-3.13723 z m -23.9677,-5.50813 c -5.28194,-0.90588 -9.01472,-3.00765 -14.64164,-8.2441 -7.58174,-7.05562 -9.85047,-18.42012 -5.82508,-29.17894 2.21011,-5.90706 5.28673,-9.52175 11.4135,-13.40962 3.17442,-2.0144 5.62597,-2.60026 12.52741,-2.99376 7.92291,-0.45175 9.00011,-0.27566 14.05321,2.29723 10.4069,5.29886 15.6816,12.24595 16.6858,21.9761 0.7878,7.63253 -1.248,14.72137 -5.9281,20.6421 -6.6175,8.37177 -15.3635,11.12713 -28.2851,8.91099 z m 2.5591,-12.81364 c 0.0325,-0.4125 0.1524,-7.1625 0.26644,-15 0.19954,-13.71401 0.13111,-14.25 -1.81932,-14.25 -2.46435,0 -6.92976,3.98457 -9.04119,8.06762 -1.25936,2.43534 -1.36292,4.03306 -0.54736,8.44483 0.55322,2.99266 1.76254,6.59604 2.68736,8.00751 2.22392,3.39413 8.29181,6.78911 8.45407,4.73004 z m 13.8421,-0.69889 c 6.6642,-3.44622 8.4383,-12.61627 3.9765,-20.55486 -2.3913,-4.25482 -7.4528,-7.85472 -8.9019,-6.33135 -0.651,0.68437 -1.5468,22.69528 -1.1024,27.0851 0.1682,1.66088 2.5856,1.58112 6.0278,-0.19889 z m 645.5988,-141.57529 c -7.7,-1.04682 -14.9,-2.16801 -16,-2.49153 -1.1,-0.32352 -6.95,-1.88801 -13,-3.47665 -18.6279,-4.89142 -23.6032,-6.91195 -33.7622,-13.71141 -11.312,-7.57118 -21.2774,-17.75196 -29.2982,-29.93136 -7.857,-11.93072 -9.5424,-17.852793 -9.6377,-33.864863 -0.1192,-20.00286 3.2821,-36.62964 10.6218,-51.92433 1.8675,-3.89162 4.5718,-9.55067 6.0096,-12.57567 6.136,-12.9096097 14.7096,-25.51126 26.2544,-38.58946 8.7166,-9.874303 30.4622,-28.637123 35.4975,-30.628383 0.9983,-0.39482 4.406,-2.41982 7.5725,-4.5 3.1665,-2.08019 8.0039,-4.86137 10.7498,-6.18041 2.7459,-1.31903 5.5875,-2.86358 6.3146,-3.43232 1.5037,-1.17606 10.7115,-5.11995 16.6779,-7.14351 2.2,-0.74615 7.6,-2.77018 12,-4.49785 11.7542,-4.61532 25.0449,-8.88226 33,-10.59463 3.85,-0.82873 8.8,-1.94889 11,-2.48926 2.2,-0.54037 7.15,-1.4508 11,-2.02317 3.85,-0.57238 8.125,-1.25533 9.5,-1.51767 1.375,-0.26234 10.8394,-0.74207 21.032,-1.06607 17.4694,-0.55532 19.2354,-0.43804 30.7981,2.04525 6.7463,1.44888 13.2569,3.26293 14.468,4.0312 1.211,0.76828 5.6879,2.33769 9.9486,3.48759 9.2367,2.49289 13.8755,4.66016 29.2897,13.68427 15.1734,8.88317 22.9204,16.60333 35.0359,34.91442 7.2574,10.96867 9.5146,16.836373 10.5259,27.363053 1.4037,14.6108203 1.3629,30.0136 -0.096,36.14206 -4.0678,17.09215 -5.2368,20.64336 -8.3494,25.36411 -1.8607,2.82193 -4.1693,6.70578 -5.1302,8.63078 -0.961,1.925 -3.3917,5.525 -5.4017,8 -2.0099,2.475 -4.877,6.14768 -6.3713,8.16152 -5.3114,7.15831 -27.7207,28.717933 -36.9129,35.513373 -9.2188,6.81513 -21.5514,14.27966 -29.3371,17.7568 -2.2,0.98253 -5.35,2.45049 -7,3.26213 -7.1705,3.52715 -23.3316,10.566 -27,11.75964 -2.2,0.71585 -8.5,2.74263 -14,4.50397 -5.5,1.76133 -11.5404,3.89955 -13.4231,4.75158 -4.0758,1.8445 -11.9538,3.74342 -24.4301,5.88869 -5.0307,0.86502 -12.7468,2.20041 -17.1468,2.96754 -4.4,0.76713 -10.028,1.40377 -12.5066,1.41477 -2.4786,0.011 -5.8896,0.41664 -7.58,0.90142 -6.7638,1.93984 -17.1067,1.97141 -30.9134,0.0944 z m 32,-18.4978 c 2.75,-0.11766 7.475,-0.69839 10.5,-1.2905 3.025,-0.59211 7.975,-1.37754 11,-1.7454 3.025,-0.36787 9.775,-1.77828 15,-3.13426 5.225,-1.35598 11.8924,-2.8452 14.8164,-3.30938 2.924,-0.46418 8.549,-1.94856 12.5,-3.29861 3.951,-1.35005 9.6586,-3.24892 12.6836,-4.2197 5.4728,-1.75633 14.7796,-5.37215 20.5,-7.96458 1.65,-0.74776 5.4382,-2.31795 8.4183,-3.48931 2.9801,-1.17137 6.5801,-2.93758 8,-3.92491 1.4199,-0.98734 5.0567,-2.91958 8.0817,-4.29388 18.968,-8.61741 45.4988,-32.134233 56.7552,-50.307483 6.8787,-11.1057 11.7393,-21.27062 13.6279,-28.5 1.8296,-7.00326 1.4288,-28.5977997 -0.7867,-42.38645 -2.638,-16.418363 -4.4132,-20.025553 -15.4533,-31.400863 -5.3037,-5.46471 -11.5556,-10.90728 -13.8931,-12.09459 -2.3375,-1.18731 -4.25,-2.52295 -4.25,-2.96809 0,-0.83248 -21.094,-11.15001 -22.796,-11.15001 -0.8268,0 -2.9996,-0.85176 -12.704,-4.98005 -9.6595,-4.10919 -50.9455,-4.41973 -67.5,-0.50771 -1.375,0.32493 -4.975,0.97623 -8,1.44733 -14.5211,2.26145 -35.0592,8.15908 -38.8849,11.16596 -1.3116,1.03096 -3.5505,1.87447 -4.9752,1.87447 -7.4157,0 -46.512,19.22774 -61.2062,30.10149 -1.7826,1.31918 -9.0344,8.248513 -16.115,15.398513 -15.1609,15.3094603 -25.3304,30.20943 -33.0157,48.37351 -6.8942,16.29406 -8.0028,21.38494 -7.9032,36.29083 0.097,14.49769 1.3566,21.6975 4.7322,27.04469 1.3024,2.063173 2.368,4.183273 2.368,4.711333 0,1.09373 8.1589,11.97508 14.9403,19.92543 8.854,10.38033 26.1508,19.50889 41.0597,21.66967 2.475,0.3587 6.075,1.08717 8,1.61881 5.8953,1.62815 22.0356,2.73835 31,2.13232 4.675,-0.31605 10.75,-0.67091 13.5,-0.78858 z M -1083.208,423.56604 c 6.05,-0.89694 18.5104,-2.03012 27.6898,-2.51817 9.1794,-0.48806 17.1239,-1.15569 17.6545,-1.48363 0.5307,-0.32794 5.1702,-0.87808 10.3102,-1.22254 5.14,-0.34446 10.3872,-1.01944 11.6606,-1.49996 1.2733,-0.48052 4.1614,-0.87367 6.418,-0.87367 2.2567,0 6.8399,-0.41713 10.18494,-0.92695 21.78427,-3.32017 34.21536,-5.26659 42.08191,-6.58903 4.95,-0.83214 15.75,-2.18826 24,-3.01361 8.25,-0.82534 15.675,-1.75715 16.5,-2.07068 2.52172,-0.95835 32.23923,-5.35428 36.5,-5.39922 2.2,-0.0232 6.925,-0.71357 10.5,-1.53415 7.39225,-1.69676 25.33418,-4.51105 48,-7.52906 8.525,-1.13513 20,-2.66219 25.5,-3.39347 34.21703,-4.54951 44.52371,-6.0042 57.5,-8.11558 16.35613,-2.66131 28.12765,-4.43819 39,-5.88694 5.775,-0.76952 13.425,-1.90038 17,-2.51303 3.575,-0.61264 8.75,-1.32449 11.5,-1.58189 2.75,-0.2574 6.125,-0.73065 7.5,-1.05167 1.375,-0.32102 9.925,-1.64524 19,-2.94272 22.63907,-3.23677 44.11584,-6.80966 59,-9.81527 6.875,-1.38829 20.825,-3.88775 31,-5.55435 10.175,-1.66661 21.65,-3.67492 25.5,-4.46291 8.91066,-1.82379 24.42895,-4.05611 46,-6.61716 9.35,-1.11008 21.5,-2.67271 27,-3.47249 5.5,-0.79978 14.275,-1.96686 19.5,-2.59351 5.225,-0.62665 10.53367,-1.54367 11.79705,-2.03783 1.26338,-0.49417 3.40508,-0.89848 4.75932,-0.89848 1.35425,0 6.39558,-0.868 11.20295,-1.92889 4.80737,-1.06089 12.36745,-2.38147 16.80016,-2.93463 11.4255,-1.42579 13.09899,-2.37334 13.92549,-7.88479 0.37237,-2.48314 0.35094,-16.18557 -0.0476,-30.44986 -0.83941,-30.0423 -0.95072,-30.42703 -8.71797,-30.13327 -31.60962,8.33396 -69.84315,13.31618 -96.7194,18.63138 -10.38859,2.06104 -19.02928,3.47902 -29,4.75905 -4.675,0.60017 -12.325,1.78355 -17,2.62973 -10.33293,1.87029 -15.23168,2.69592 -25,4.21349 -14.18608,2.20389 -25.51073,4.28858 -31,5.7066 -3.025,0.78144 -12.475,2.33581 -21,3.45414 -8.525,1.11834 -18.2,2.65401 -21.5,3.41259 -3.3,0.75859 -8.475,1.65386 -11.5,1.98948 -3.025,0.33563 -6.85,1.03977 -8.5,1.56476 -3.17684,1.01078 -20.93006,3.8988 -28.5,4.63626 -2.475,0.24111 -5.4,0.80864 -6.5,1.26118 -1.1,0.45254 -9.65,2.28762 -19,4.07796 -9.35,1.79034 -19.925,4.05576 -23.5,5.03426 -8.4986,2.32611 -19.13693,4.73447 -26,5.88601 -3.025,0.50756 -8.425,1.5877 -12,2.40031 -26.31723,5.98201 -60.13035,11.56194 -80,13.20181 -9.38733,0.77475 -26.50611,3.57165 -48.5,7.92401 -32.32537,6.39687 -61.98233,11.54239 -66.64949,11.56377 -27.08732,5.00728 -52.30876,10.08369 -77.00076,14.94889 -16.6924,3.28323 -33.7247,6.6956 -37.8497,7.58305 -4.125,0.88745 -9.975,2.00738 -13,2.48874 -6.4874,1.0323 -26.7621,5.25753 -36,7.50236 -3.575,0.86873 -11.225,2.60982 -17,3.86908 -5.775,1.25926 -12.075,2.98569 -14,3.8365 -1.925,0.85081 -6.425,2.24284 -10,3.0934 -26.8132,6.37934 -61,17.42179 -61,19.70316 0,1.4165 5.9987,2.63735 14,2.84925 10.7875,0.28569 36.2587,2.03562 36.7477,2.52466 0.2281,0.22811 18.2657,0.27965 40.0835,0.11454 30.2324,-0.22879 42.2854,-0.68814 50.6688,-1.93101 z M -78.208049,362.50856 c 10.0771,-4.17932 18.3054,-8.90661 26.5622,-15.2603 3.0593,-2.3541 5.8264,-4.28019 6.1492,-4.28019 0.3227,0 3.2197,-1.82051 6.4377,-4.04558 3.218,-2.22507 9.4509,-6.47388 13.8509,-9.44179 17.0344996,-11.49021 19.3310996,-13.15877 24.41879964,-17.7413 L 4.4608506,307.01073 0.75595064,302.4894 c -2.03770004,-2.48673 -4.44810004,-4.52133 -5.35650004,-4.52133 -0.9084,0 -4.2907,2.1375 -7.5160996,4.75 -8.085,6.54846 -32.508,31.15841 -35.7405,36.01397 -2.7467,4.12596 -9.1206,7.23603 -14.8297,7.23603 -1.4424,0 -6.6497,0.94009 -11.5719,2.08908 -4.9221,1.14899 -12.0937,2.483 -15.9369,2.96447 -3.8432,0.48146 -11.943201,1.77235 -18.000001,2.86864 -6.0568,1.09629 -17.8386,3.02358 -26.1817,4.28288 -8.3432,1.25929 -15.0932,2.36289 -15,2.45245 0.093,0.0896 3.5443,0.90978 7.6693,1.8227 4.125,0.91293 9.075,2.03556 11,2.49476 1.925,0.45919 9.125,2.16108 16,3.78198 l 12.5,2.94709 7.500001,-2.71547 c 4.125,-1.49351 11.55,-4.39515 16.5,-6.44809 z M -571.20805,267.08438 c 4.4,-0.63998 10.925,-1.59779 14.5,-2.12847 3.575,-0.53067 8.75,-1.18786 11.5,-1.46041 9.10228,-0.90213 19.90477,-2.45299 27,-3.87626 7.70691,-1.54597 15.84338,-2.90758 31,-5.18772 15.4263,-2.32071 26.44847,-4.2977 29.87873,-5.35919 1.7167,-0.53123 5.59627,-1.25647 8.62127,-1.61164 3.025,-0.35517 7.075,-1.06214 9,-1.57104 5.40392,-1.42859 31.95585,-6.74876 37,-7.41363 2.475,-0.32623 8.1,-1.44795 12.5,-2.4927 4.4,-1.04475 9.575,-2.15096 11.5,-2.45824 11.15947,-1.78132 22.98485,-4.06879 34,-6.57686 14.64702,-3.33502 42.8054,-7.9742 48.51989,-7.9938 4.68921,-0.0161 8.48011,-0.90645 8.48011,-1.99169 0,-0.66401 -1.6846,-1.15717 -8.78586,-2.57202 -0.70723,-0.14091 -3.40723,-0.72177 -6,-1.29079 -2.59278,-0.56903 -8.53914,-1.69357 -13.21414,-2.49898 -4.675,-0.8054 -10.75,-1.97812 -13.5,-2.60603 -2.75,-0.62791 -7.7,-1.758 -11,-2.51131 -3.3,-0.75331 -8.925,-1.66324 -12.5,-2.02207 -3.575,-0.35883 -8.75,-1.2644 -11.5,-2.01238 -9.62578,-2.61816 -23.048,-5.40368 -28.5,-5.91462 -12.83487,-1.20285 -19.49413,-2.41226 -46.5,-8.44501 -13.10556,-2.92761 -14.49169,-3.2161 -20,-4.1625 -2.75,-0.47248 -7.475,-1.34091 -10.5,-1.92984 -36.02347,-6.83444 -74.5379,-10.25373 -108.88102,-15.35998 -9.36974,-1.48459 -21.02131,-3.74338 -28.61898,-5.47972 -3.85,-0.87986 -9.475,-1.97797 -12.5,-2.44025 -115.24465,-14.43477 -213.60051,-29.75605 -324.63275,-46.76467 -10.90543,-1.78212 -38.21506,-4.07039 -65.8672,-5.51901 -14.85,-0.77796 -31.95,-1.85944 -38,-2.4033 -17.868,-1.60623 -76.1551,-2.25465 -101,-1.12359 -12.65,0.57589 -29.3162,1.22147 -37.036,1.43462 -7.7198,0.21316 -16.4948,0.8774 -19.5,1.47609 -3.0052,0.5987 -9.8515,1.81912 -15.214,2.71205 -5.3625,0.89294 -9.75,2.01458 -9.75,2.49255 0,0.47796 1.9125,1.35858 4.25,1.95694 2.3375,0.59835 4.925,1.33939 5.75,1.64675 3.8362,1.42921 12.8584,3.27466 16.1666,3.3068 2.0167,0.0196 3.8287,0.52153 4.0266,1.11543 0.198,0.59389 3.498,1.73377 7.3334,2.53306 23.4217,6.36241 48.1551,12.09648 71.6249,18.35124 6.2417,1.67372 14.2735,3.76492 17.8485,4.64711 3.575,0.88219 8.975,2.21418 12,2.95998 3.025,0.7458 8.875,2.2613 13,3.36779 11.9609,3.20837 18.5736,4.91415 33.5,8.64142 7.7,1.92277 15.35,3.92169 17,4.44203 7.5176,2.37076 20.619,5.92459 27,7.32395 73.29893,18.19664 134.64458,35.3637 213.30424,50.61609 5.66736,1.09262 10.69384,2.22733 11.16995,2.52159 0.47611,0.29425 5.96418,1.62917 12.19571,2.96647 6.23153,1.33731 15.15505,3.33055 19.83005,4.42941 4.675,1.09887 12.55,2.71044 17.5,3.58128 4.95,0.87084 11.25,2.00153 14,2.51266 5.35617,0.99552 27.01151,6.45964 29.5,7.4435 1.50096,0.59343 4.71943,1.34038 25.73893,5.97356 6.18141,1.36253 11.66384,2.73993 12.18318,3.0609 0.51934,0.32097 2.88682,0.98313 5.26107,1.47146 2.37425,0.48834 6.79182,1.54647 9.81682,2.35141 3.025,0.80494 11.8,2.89154 19.5,4.63688 7.7,1.74534 16.475,4.01538 19.5,5.04454 5.83703,1.98586 7.84035,2.00151 20.5,0.16016 z"
       style="fill:#000000" />
  </g>
</svg>
