<?xml version="1.0" standalone="yes"?>
<svg xmlns="http://www.w3.org/2000/svg" width="200" height="200">
<path style="fill:#f9f9f9; stroke:none;" d="M0 0L0 200L200 200L200 0L0 0z"/>
<path style="fill:#e4d4c3; stroke:none;" d="M169.333 5.66667L169.667 6.33333L169.333 5.66667z"/>
<path style="fill:#e2b25f; stroke:none;" d="M30 6C32.1678 22.0987 36.4484 44.3277 43.4298 59C46.2847 64.9999 53.0298 68.1152 55.9722 74C57.9446 77.9448 56.57 82.7842 57.213 87C57.8616 91.2528 60.3656 95.0744 62 99L63 99C69.2133 79.9436 83.8003 76.0786 99 89L100 89C114.586 77.4645 131.126 78.4885 136 99L137 99C138.634 95.0744 141.138 91.2528 141.787 87C142.43 82.7842 141.055 77.9448 143.028 74C145.97 68.1152 152.715 64.9998 155.57 59C162.604 44.2166 166.818 22.2032 169 6C162.311 8.78508 145.632 14.2408 142.603 21.213C139.806 27.6532 142 39.0136 142 46C111.352 29.8741 87.6663 29.8646 57 46C57 38.994 59.3912 26.7566 56.3966 20.3904C53.4174 14.057 36.2991 8.62254 30 6z"/>
<path style="fill:#e4d4c3; stroke:none;" d="M31 6L32 7L31 6M167 6L168 7L167 6M33 7L34 8L33 7M165 7L166 8L165 7M35 8L36 9L35 8M163 8L164 9L163 8M30 9L31 10L30 9M37 9L38 10L37 9M161 9L162 10L161 9M168.333 9.66667L168.667 10.3333L168.333 9.66667M39 10L40 11L39 10M159 10L160 11L159 10M41 11L42 12L41 11M157 11L158 12L157 11M43 12L44 13L43 12M155 12L156 13L155 12M31 13L32 14L31 13M45 13L46 14L45 13M153 13L154 14L153 13M167.333 13.6667L167.667 14.3333L167.333 13.6667M47 14L48 15L47 14M49 15L50 16L49 15M51 16L52 17L51 16M148 16L149 17L148 16M32 17L33 18L32 17M53 17L54 18L53 17M146 17L147 18L146 17M166.333 17.6667L166.667 18.3333L166.333 17.6667M55 18L56 19L55 18M144 18L145 19L144 18M142 19L143 20L142 19M141 20L140 46C144.166 42.3595 143.08 24.956 141 20M33 21L34 22L33 21M165.333 21.6667L165.667 22.3333L165.333 21.6667M34 25L35 26L34 25M164.333 25.6667L164.667 26.3333L164.333 25.6667M35 29L36 30L35 29M163.333 29.6667L163.667 30.3333L163.333 29.6667M92 32L92 33L96 33L92 32M103 32L103 33L107 33L103 32M36 33L37 34L36 33M87.6667 33.3333L88.3333 33.6667L87.6667 33.3333M110.667 33.3333L111.333 33.6667L110.667 33.3333M162 33L163 34L162 33M83 34L84 35L83 34M115 34L116 35L115 34M79.6667 35.3333L80.3333 35.6667L79.6667 35.3333M118.667 35.3333L119.333 35.6667L118.667 35.3333M37.3333 36.6667L37.6667 37.3333L37.3333 36.6667M77 36L78 37L77 36M121.667 36.3333L122.333 36.6667L121.667 36.3333M74 37L75 38L74 37M124 37L125 38L124 37M161 37L162 38L161 37M72 38L73 39L72 38M127 38L128 39L127 38M69 39L70 40L69 39M129 39L130 40L129 39M38.3333 40.6667L38.6667 41.3333L38.3333 40.6667M67 40L68 41L67 40M131 40L132 41L131 40M65 41L66 42L65 41M133 41L134 42L133 41M160 41L161 42L160 41M63 42L64 43L63 42M135 42L136 43L135 42M61 43L62 44L61 43M137 43L138 44L137 43M39.3333 44.6667L39.6667 45.3333L39.3333 44.6667M57.6667 45.3333L58.3333 45.6667L57.6667 45.3333M159 45L160 46L159 45M40 48L41 49L40 48M158.333 48.6667L158.667 49.3333L158.333 48.6667M41 52L42 53L41 52M157.333 52.6667L157.667 53.3333L157.333 52.6667M42 56L43 57L42 56M156.333 56.6667L156.667 57.3333L156.333 56.6667M43 60L44 61L43 60M155 60L156 61L155 60M44 61L45 62L44 61M154 61L155 62L154 61M45 62L46 63L45 62M153 62L154 63L153 62M46 63L47 64L46 63M152 63L153 64L152 63M47 64L48 65L47 64M151 64L152 65L151 64M48 65L49 66L48 65M150 65L151 66L150 65M49 66L50 67L49 66M149 66L150 67L149 66M50 67L51 68L50 67M148 67L149 68L148 67M51 68L52 69L51 68M147 68L148 69L147 68M52 69L53 70L52 69M146 69L147 70L146 69M53 70L54 71L53 70M145 70L146 71L145 70M54 71L55 72L54 71M144 71L145 72L144 71M55 72L56 73L55 72M143 72L144 73L143 72M56 73L57 74L56 73M142 73L143 74L142 73M63 99L62 99L58 89L57 89L46.6906 131L53.1389 146L61 159C62.6903 147.512 66.2363 123.819 75 116C74.7218 129.477 71.1055 143.68 68.9198 157C67.5948 165.074 65.6132 171.597 74 176L81.6111 134L84 111L101 105.179L113.297 113.105L118.081 137L125 176C133.871 171.814 131.281 164.995 130.131 157C128.189 143.49 124.585 129.623 124 116C134.441 125.182 133.632 146.524 139 159C144.222 152.698 151.731 139.301 152.31 131C153.222 117.928 144.649 101.834 142 89L141 89L137 99L136 99C133.1 79.6501 112.683 74.7613 100 89C85.139 76.3665 67.7534 78.4633 63 99z"/>
<path style="fill:#e2b25f; stroke:none;" d="M76 85L76 86L91 87L76 85z"/>
<path style="fill:#a6844b; stroke:none;" d="M75.7423 87.0278C67.6789 93.5516 80.4375 102.8 87.7716 97.2577C98.0485 89.4914 82.4921 81.5667 75.7423 87.0278z"/>
<path style="fill:#e2b25f; stroke:none;" d="M74 87L75 88L74 87M116 88L117 89L116 88z"/>
<path style="fill:#a6844b; stroke:none;" d="M117 88L118 89L117 88z"/>
<path style="fill:#e2b25f; stroke:none;" d="M118 88L119 89L118 88z"/>
<path style="fill:#a6844b; stroke:none;" d="M115 89L114 91L115 89z"/>
<path style="fill:#393939; stroke:none;" d="M116.307 90.0856C112.556 92.2694 116.027 97.3945 119.527 94.9537C122.647 92.7781 119.554 88.1953 116.307 90.0856z"/>
<path style="fill:#e2b25f; stroke:none;" d="M120 89L121 90L120 89z"/>
<path style="fill:#a6844b; stroke:none;" d="M121 91L122 92L121 91z"/>
<path style="fill:#e2b25f; stroke:none;" d="M113 92L114 93L113 92z"/>
<path style="fill:#a6844b; stroke:none;" d="M121 93L122 94L121 93z"/>
<path style="fill:#e2b25f; stroke:none;" d="M90 94L91 95L90 94M121 94L122 95L121 94z"/>
<path style="fill:#a6844b; stroke:none;" d="M120 95L121 96L120 95M116 96L116 97L119 97L116 96z"/>
<path style="fill:#e2b25f; stroke:none;" d="M119 96L120 97L119 96M74 97L75 98L74 97M75 98L76 99L75 98M86 98L87 99L86 98M76 99L76 100L85 100L76 99M84.3333 111.667L84.6667 112.333L84.3333 111.667M114 111L115 112L114 111z"/>
<path style="fill:#e4d4c3; stroke:none;" d="M94 112L94 113L105 113L94 112z"/>
<path style="fill:#e2b25f; stroke:none;" d="M94 113L94 116L95 116L94 113z"/>
<path style="fill:#393939; stroke:none;" d="M95 113C95.304 122.334 103.696 122.334 104 113L95 113z"/>
<path style="fill:#a6844b; stroke:none;" d="M104 113L104 118L105 118L104 113z"/>
<path style="fill:#e2b25f; stroke:none;" d="M115.333 115.667L115.667 116.333L115.333 115.667M83.3333 116.667L83.6667 117.333L83.3333 116.667z"/>
<path style="fill:#e4d4c3; stroke:none;" d="M94.3333 116.667L94.6667 117.333L94.3333 116.667M104 118L105 119L104 118M95 119L96 120L95 119z"/>
<path style="fill:#a6844b; stroke:none;" d="M103 119L102 121L103 119z"/>
<path style="fill:#e4d4c3; stroke:none;" d="M96 120L97 121L96 120M103 120L104 121L103 120M97.6667 121.333L98.3333 121.667L97.6667 121.333z"/>
<path style="fill:#e2b25f; stroke:none;" d="M99.6667 121.333L100.333 121.667L99.6667 121.333z"/>
<path style="fill:#e4d4c3; stroke:none;" d="M101 121L102 122L101 121z"/>
<path style="fill:#e2b25f; stroke:none;" d="M116 121L117 122L116 121M82 122L83 123L82 122z"/>
</svg>
